<?xml version="1.0" standalone="no"?>
<!DOCTYPE svg PUBLIC "-//W3C//DTD SVG 20010904//EN"
 "http://www.w3.org/TR/2001/REC-SVG-20010904/DTD/svg10.dtd">
<svg version="1.0" xmlns="http://www.w3.org/2000/svg"
 width="512.000000pt" height="512.000000pt" viewBox="0 0 512.000000 512.000000"
 preserveAspectRatio="xMidYMid meet">

<g transform="translate(0.000000,512.000000) scale(0.100000,-0.100000)"
fill="#27ae5f" stroke="none">
<path d="M2055 5017 c-119 -40 -216 -124 -268 -234 -30 -64 -32 -74 -32 -183
0 -110 1 -118 33 -183 43 -87 123 -167 211 -210 63 -30 72 -32 181 -32 109 0
119 2 183 32 88 42 163 117 208 208 33 67 34 74 34 185 0 109 -2 119 -32 183
-42 89 -121 168 -210 210 -60 28 -80 32 -168 34 -63 2 -115 -2 -140 -10z m245
-167 c61 -30 97 -65 128 -125 22 -41 26 -63 26 -125 0 -116 -49 -197 -154
-251 -62 -33 -177 -33 -236 -2 -64 34 -103 71 -130 126 -79 154 -6 330 163
393 52 20 147 12 203 -16z"/>
<path d="M1687 4110 c-50 -13 -127 -53 -167 -87 -51 -42 -600 -682 -616 -717
-21 -46 -134 -513 -134 -554 0 -86 54 -173 134 -214 60 -31 156 -30 214 2 84
47 98 78 244 552 23 74 29 82 164 229 l139 152 5 -354 c4 -294 8 -360 21 -389
15 -33 12 -75 -60 -785 -47 -473 -72 -763 -68 -786 4 -21 19 -53 32 -73 14
-20 25 -39 25 -41 0 -3 -84 -5 -186 -5 -102 0 -194 -4 -204 -10 -36 -19 -40
-63 -40 -406 l0 -333 -536 -3 -536 -3 -19 -24 c-28 -35 -25 -85 8 -111 26 -20
30 -20 616 -18 l589 3 19 24 c18 22 19 44 19 372 l0 349 570 2 569 3 23 23
c23 22 23 24 26 362 l3 340 565 0 c597 0 611 1 628 45 3 9 6 174 6 366 l0 349
630 0 c617 0 630 0 650 20 27 27 27 83 -2 110 -21 20 -31 20 -704 20 -656 0
-683 -1 -705 -19 l-24 -19 -3 -356 -3 -356 -139 0 -140 0 0 354 c0 319 -2 360
-19 415 -26 84 -60 137 -125 199 -76 72 -148 102 -376 160 l-195 49 3 144 c1
79 5 199 8 266 l6 123 107 -75 c195 -138 286 -172 429 -161 82 6 132 20 392
111 115 40 160 72 191 140 58 125 -29 280 -167 301 -36 5 -71 -2 -196 -41 -86
-27 -173 -48 -198 -49 -65 0 -120 30 -246 137 -144 121 -235 186 -296 209 -73
27 -161 34 -803 63 -49 2 -107 0 -128 -5z m578 -175 c138 -8 267 -19 287 -25
44 -13 133 -77 253 -183 112 -99 175 -141 248 -167 88 -31 147 -26 313 26 81
25 158 44 173 42 57 -7 67 -96 14 -116 -340 -125 -417 -143 -515 -123 -81 17
-82 17 -298 170 -200 143 -224 152 -261 101 -17 -23 -20 -60 -27 -410 -6 -232
-5 -396 0 -412 12 -34 20 -37 296 -108 129 -33 249 -69 268 -80 52 -33 111
-106 131 -163 16 -46 18 -90 18 -392 l0 -340 -107 -3 -107 -3 -3 263 c-3 248
-4 265 -25 304 -25 47 -76 95 -119 112 -16 6 -201 48 -411 91 -211 44 -396 87
-412 95 -40 21 -88 71 -114 120 -22 40 -22 50 -27 503 -5 457 -5 463 -27 484
-48 48 -60 40 -306 -212 -125 -129 -236 -250 -246 -269 -11 -19 -55 -148 -100
-286 -46 -142 -89 -258 -99 -268 -10 -8 -32 -19 -50 -22 -26 -5 -36 -1 -62 24
-16 17 -30 38 -30 46 0 31 130 509 143 524 6 9 132 155 279 326 242 281 274
314 330 345 l63 33 140 -6 c77 -3 253 -13 390 -21z m-231 -1490 c49 -13 91
-26 93 -29 9 -8 -189 -1231 -204 -1259 -7 -15 -30 -35 -49 -44 -31 -15 -39
-16 -76 -3 -28 10 -48 26 -60 47 -19 31 -18 39 47 677 36 355 65 654 65 665 0
19 2 19 48 -5 26 -14 88 -36 136 -49z m481 -105 c230 -49 221 -47 245 -73 19
-19 20 -36 20 -270 l0 -248 -182 2 c-178 2 -182 2 -200 -20 -17 -22 -18 -48
-18 -362 l0 -339 -175 0 c-96 0 -175 3 -175 6 0 3 8 18 19 32 37 54 52 128
141 697 50 319 93 590 96 603 3 16 10 22 22 18 9 -3 103 -24 207 -46z"/>
<path d="M4212 1997 c-135 -137 -149 -159 -119 -198 15 -20 51 -39 72 -39 9 0
40 23 69 50 29 28 56 50 59 50 4 0 7 -387 7 -859 0 -824 1 -860 19 -882 23
-29 81 -31 111 -4 20 18 20 24 20 882 0 474 3 863 7 863 3 0 30 -22 59 -50 60
-57 92 -63 129 -25 47 46 37 66 -107 212 -113 114 -137 133 -163 133 -26 0
-50 -19 -163 -133z"/>
<path d="M2983 1328 c-114 -113 -133 -136 -133 -163 0 -40 36 -75 76 -75 22 0
42 12 79 50 l50 51 5 -530 c5 -502 6 -530 24 -550 13 -14 31 -21 55 -21 83 1
81 -15 81 582 l0 522 53 -52 c40 -39 60 -52 83 -52 59 0 98 55 73 103 -16 31
-219 236 -251 253 -15 8 -35 14 -44 14 -10 0 -77 -59 -151 -132z"/>
<path d="M1838 622 c-117 -117 -128 -131 -128 -164 0 -28 7 -42 26 -57 42 -33
69 -27 129 30 l54 51 3 -175 c3 -155 5 -177 22 -196 13 -14 31 -21 55 -21 74
0 81 21 81 226 l0 167 54 -52 c62 -58 90 -64 132 -28 19 17 27 33 27 57 0 28
-16 48 -130 161 -171 171 -156 171 -325 1z"/>
</g>
</svg>
