<?xml version="1.0" standalone="no"?>
<!DOCTYPE svg PUBLIC "-//W3C//DTD SVG 20010904//EN"
 "http://www.w3.org/TR/2001/REC-SVG-20010904/DTD/svg10.dtd">
<svg version="1.0" xmlns="http://www.w3.org/2000/svg"
 width="512.000000pt" height="512.000000pt" viewBox="0 0 512.000000 512.000000"
 preserveAspectRatio="xMidYMid meet">

<g transform="translate(0.000000,512.000000) scale(0.100000,-0.100000)"
fill="#27ae5f" stroke="none">
<path d="M2695 5114 c-626 -50 -1160 -229 -1615 -542 -678 -465 -1060 -1185
-1060 -1997 0 -631 245 -1236 729 -1800 206 -239 376 -370 609 -467 127 -53
314 -101 346 -88 43 16 60 77 33 114 -8 11 -55 29 -123 46 -306 80 -516 218
-753 495 -481 562 -710 1153 -688 1780 12 341 81 622 227 920 282 577 818
1015 1520 1240 197 63 406 107 645 137 151 19 610 16 768 -5 307 -41 388 -68
470 -156 67 -72 89 -127 94 -236 4 -75 1 -99 -17 -148 -48 -127 -115 -183
-301 -246 -256 -88 -429 -191 -570 -338 -99 -105 -166 -217 -208 -348 -52
-161 -63 -303 -35 -466 31 -183 87 -300 234 -494 136 -179 231 -388 261 -574
l11 -66 -77 -180 c-110 -257 -215 -523 -316 -805 l-87 -245 -71 -51 c-179
-132 -421 -221 -673 -249 -46 -5 -62 -12 -78 -32 -26 -34 -25 -56 4 -90 22
-25 29 -27 87 -25 154 6 378 70 549 156 l105 52 -3 -70 c-7 -132 62 -247 183
-306 69 -34 198 -35 265 -2 71 34 117 78 159 150 131 226 451 875 451 915 0
86 -117 97 -150 15 -32 -80 -250 -521 -347 -702 -89 -164 -113 -203 -145 -223
-85 -57 -194 -33 -244 54 -23 38 -26 52 -21 101 10 104 218 690 401 1132 114
277 389 890 411 918 7 8 405 -172 402 -182 -3 -6 -35 -88 -71 -183 -58 -151
-127 -320 -221 -544 -25 -60 -26 -69 -14 -95 26 -54 106 -58 133 -6 28 54 205
492 286 707 90 239 210 598 256 764 26 94 32 106 61 124 18 10 41 33 52 51 37
59 92 201 94 240 1 35 7 42 72 91 87 64 219 204 264 278 78 132 111 271 111
466 -1 205 -56 567 -95 624 -34 50 -70 71 -122 71 -41 0 -62 -9 -150 -64 -221
-138 -433 -316 -529 -443 -112 -150 -157 -295 -156 -502 0 -71 5 -153 10 -181
8 -45 6 -53 -11 -63 -20 -13 -85 -144 -112 -229 -13 -38 -14 -58 -7 -85 10
-34 5 -44 -95 -219 -58 -101 -185 -344 -282 -540 l-177 -357 -23 72 c-40 122
-134 293 -238 432 -163 217 -205 331 -206 550 0 87 5 152 16 197 75 309 296
515 701 657 161 56 226 93 292 163 93 102 134 207 134 348 0 187 -76 337 -218
434 -103 70 -186 93 -485 132 -108 14 -549 26 -652 18z m2194 -511 c25 -94 52
-301 58 -438 11 -282 -33 -417 -186 -578 -67 -71 -177 -157 -200 -156 -9 0
-90 33 -181 72 l-165 72 -8 45 c-5 25 -9 99 -9 165 0 136 22 241 69 327 68
125 243 289 475 445 68 45 126 83 130 83 4 0 12 -17 17 -37z m-554 -1243 c120
-51 161 -73 163 -88 4 -23 -63 -172 -77 -172 -16 0 -324 132 -338 144 -9 8 -4
29 20 86 38 89 44 100 60 100 7 -1 84 -32 172 -70z m-117 -341 c56 -24 102
-49 102 -56 0 -17 -90 -312 -143 -468 -31 -89 -49 -129 -58 -127 -31 6 -369
155 -369 162 0 16 229 438 293 541 10 16 15 16 41 5 17 -7 77 -33 134 -57z"/>
<path d="M2060 4548 c-81 -13 -154 -51 -216 -112 -101 -101 -140 -233 -110
-370 40 -179 185 -303 367 -314 174 -10 316 76 393 237 28 60 31 75 31 161 -1
120 -25 187 -97 265 -100 110 -227 156 -368 133z m166 -163 c51 -21 110 -81
134 -137 57 -133 -17 -293 -157 -339 -45 -15 -138 -8 -184 15 -145 69 -189
252 -92 383 28 39 102 84 152 94 43 8 104 1 147 -16z"/>
<path d="M1197 3789 c-106 -25 -232 -118 -295 -217 -101 -157 -97 -373 10
-532 22 -34 64 -80 92 -102 255 -203 614 -123 752 167 155 324 -82 698 -440
694 -44 -1 -98 -5 -119 -10z m268 -171 c212 -109 254 -383 86 -547 -116 -113
-292 -128 -427 -36 -91 63 -136 144 -142 260 -6 110 21 179 97 256 77 77 138
100 251 96 67 -3 95 -9 135 -29z"/>
<path d="M1050 2597 c-78 -23 -141 -59 -200 -114 -111 -103 -160 -212 -160
-358 0 -197 100 -357 275 -441 189 -91 401 -56 552 92 252 246 163 679 -165
805 -71 27 -234 36 -302 16z m247 -158 c226 -85 289 -383 117 -556 -176 -176
-469 -108 -559 129 -27 73 -18 196 20 267 37 67 111 134 178 160 72 27 169 27
244 0z"/>
<path d="M1831 1650 c-202 -73 -319 -248 -309 -464 3 -80 8 -101 41 -170 92
-195 299 -299 509 -255 165 34 310 172 352 334 62 237 -73 484 -305 556 -82
26 -215 25 -288 -1z m287 -159 c140 -72 206 -240 152 -385 -29 -75 -86 -138
-159 -173 -47 -24 -69 -28 -136 -28 -67 0 -88 5 -130 27 -111 58 -167 146
-173 270 -4 65 0 85 20 130 35 75 79 122 151 158 58 30 68 31 147 28 62 -3 96
-10 128 -27z"/>
</g>
</svg>
