<?xml version="1.0" standalone="no"?>
<!DOCTYPE svg PUBLIC "-//W3C//DTD SVG 20010904//EN"
 "http://www.w3.org/TR/2001/REC-SVG-20010904/DTD/svg10.dtd">
<svg version="1.0" xmlns="http://www.w3.org/2000/svg"
 width="512.000000pt" height="512.000000pt" viewBox="0 0 512.000000 512.000000"
 preserveAspectRatio="xMidYMid meet">

<g transform="translate(0.000000,512.000000) scale(0.100000,-0.100000)"
fill="#27ae5f" stroke="none">
<path d="M1635 4668 c-85 -15 -209 -84 -279 -153 -118 -116 -185 -283 -173
-435 13 -159 93 -311 216 -408 l49 -39 -87 -11 c-247 -33 -433 -166 -536 -385
-64 -133 -66 -159 -63 -735 3 -507 3 -518 25 -557 11 -22 32 -50 45 -62 70
-66 200 -83 295 -39 l52 25 3 -602 c3 -589 3 -603 24 -648 84 -182 337 -227
490 -87 l53 49 31 -35 c75 -85 229 -119 343 -76 90 34 153 99 178 182 6 20 9
270 9 625 0 326 1 593 2 593 2 0 25 -11 52 -25 55 -28 140 -33 209 -14 47 13
111 69 140 123 22 41 22 46 22 561 0 585 0 585 -71 733 -100 208 -291 343
-531 374 l-84 11 38 31 c103 83 177 195 208 312 8 32 15 95 15 139 0 159 -51
276 -170 396 -139 139 -314 193 -505 157z m207 -79 c148 -31 279 -135 345
-276 34 -71 38 -87 41 -178 3 -83 0 -111 -18 -165 -103 -309 -459 -436 -727
-260 -80 53 -127 107 -170 197 -92 192 -54 402 100 550 123 119 273 165 429
132z m408 -1075 c153 -54 262 -147 334 -284 71 -134 71 -136 71 -705 0 -492
-1 -511 -20 -544 -35 -60 -67 -76 -150 -76 -83 0 -115 16 -150 76 -19 32 -20
57 -25 414 l-5 380 -24 3 c-53 8 -51 46 -51 -1062 0 -982 -1 -1033 -19 -1072
-67 -148 -320 -152 -398 -5 l-23 44 0 588 c0 521 -2 589 -16 603 -8 9 -21 16
-28 16 -35 0 -36 -14 -36 -595 0 -648 0 -648 -70 -708 -63 -54 -147 -70 -235
-46 -52 15 -119 82 -134 134 -8 28 -11 343 -11 1057 0 559 -3 1023 -6 1032 -7
19 -45 21 -62 4 -9 -9 -12 -108 -12 -383 0 -341 -1 -373 -19 -405 -58 -110
-253 -107 -302 6 -19 42 -20 65 -17 567 3 501 4 524 24 577 86 227 261 378
474 409 30 5 228 8 440 7 l385 -1 85 -31z"/>
<path d="M3572 4660 c-127 -34 -197 -75 -297 -175 -102 -101 -142 -170 -175
-301 -36 -141 -18 -288 52 -432 50 -103 179 -229 287 -281 163 -79 314 -90
478 -36 303 101 496 428 429 728 -80 357 -436 585 -774 497z m282 -80 c43 -11
103 -34 135 -52 72 -41 178 -147 219 -219 39 -69 72 -192 72 -269 0 -77 -33
-200 -72 -269 -41 -72 -147 -178 -219 -219 -69 -39 -192 -72 -269 -72 -77 0
-200 33 -269 72 -72 41 -178 147 -219 219 -39 69 -72 192 -72 269 0 77 33 200
72 269 41 72 147 178 220 219 70 40 183 71 264 71 33 1 96 -8 138 -19z"/>
<path d="M3803 4088 l-163 -163 -83 83 c-45 45 -89 82 -98 82 -19 0 -39 -20
-39 -40 0 -20 200 -220 220 -220 20 0 380 361 380 381 0 19 -20 39 -40 39 -8
0 -88 -73 -177 -162z"/>
<path d="M3572 3180 c-127 -34 -197 -75 -297 -175 -102 -101 -142 -170 -175
-301 -36 -141 -18 -288 52 -432 50 -103 179 -229 287 -281 163 -79 314 -90
478 -36 303 101 496 428 429 728 -80 357 -436 585 -774 497z m282 -80 c43 -11
103 -34 135 -52 72 -41 178 -147 219 -219 39 -69 72 -192 72 -269 0 -77 -33
-200 -72 -269 -41 -72 -147 -178 -219 -219 -69 -39 -192 -72 -269 -72 -77 0
-200 33 -269 72 -72 41 -178 147 -219 219 -39 69 -72 192 -72 269 0 77 33 200
72 269 41 72 147 178 220 219 70 40 183 71 264 71 33 1 96 -8 138 -19z"/>
<path d="M3803 2608 l-163 -163 -83 83 c-45 45 -89 82 -98 82 -19 0 -39 -20
-39 -40 0 -20 200 -220 220 -220 20 0 380 361 380 381 0 19 -20 39 -40 39 -8
0 -88 -73 -177 -162z"/>
<path d="M3572 1700 c-127 -34 -197 -75 -297 -175 -102 -101 -142 -170 -175
-301 -36 -141 -18 -288 52 -432 50 -103 179 -229 287 -281 163 -79 314 -90
478 -36 303 101 496 428 429 728 -80 357 -436 585 -774 497z m282 -80 c43 -11
103 -34 135 -52 72 -41 178 -147 219 -219 39 -69 72 -192 72 -269 0 -77 -33
-200 -72 -269 -41 -72 -147 -178 -219 -219 -69 -39 -192 -72 -269 -72 -77 0
-200 33 -269 72 -72 41 -178 147 -219 219 -39 69 -72 192 -72 269 0 77 33 200
72 269 41 72 147 178 220 219 70 40 183 71 264 71 33 1 96 -8 138 -19z"/>
<path d="M3803 1128 l-163 -163 -83 83 c-45 45 -89 82 -98 82 -19 0 -39 -20
-39 -40 0 -20 200 -220 220 -220 20 0 380 361 380 381 0 19 -20 39 -40 39 -8
0 -88 -73 -177 -162z"/>
</g>
</svg>
